# xmcd CD database file generated by Grip 3.3.1
# 
# Track frame offsets:
#       150
#       18527
#       36510
#       62555
#       79317
#       96615
#       109782
#       122322
#       142352
# 
# Disc length: 2079 seconds
# 
# Revision: 2
# Processed by: cddbd v1.5.2PL0 Copyright (c) Steve Scherf et al.
# Submitted via: Grip 3.3.1
# 
DISCID=82081d09
DTITLE=Professor Longhair - Live on the Queen Mary
DYEAR=1978
DGENRE=Blues
TTITLE0=Tell Me Pretty Baby
TTITLE1=Mess Around
TTITLE2=Everyday I Have the Blues
TTITLE3=Tipitina
TTITLE4=I'm Movin' On
TTITLE5=Mardi Gras in New Orleans
TTITLE6=Cry to Me
TTITLE7=Gone So Long
TTITLE8=Stagger Lee
EXTD=
EXTT0=
EXTT1=
EXTT2=
EXTT3=
EXTT4=
EXTT5=
EXTT6=
EXTT7=
EXTT8=
PLAYORDER=
